# xmcd CD database file
#
# Track frame offsets:
#	150
#	13377
#	25554
#	39005
#	54060
#	74263
#	85742
#	97492
#	112262
#	126789
#
# Disc length: 1956 seconds
#
# Revision: 1
# Processed by: cddbd v1.5.2PL0 Copyright (c) Steve Scherf et al.
# Submitted via: CDex 1.50beta10
#
DISCID=7d07a20a
DTITLE=John Fogerty - John Fogerty
DYEAR=1975
DGENRE=Rock and Roll
TTITLE0=Rockin' All Over The World
TTITLE1=You Rascal You
TTITLE2=Wall
TTITLE3=Travelin' High
TTITLE4=Lonely Teardrops
TTITLE5=Almost Saturday Night
TTITLE6=Where The River Flows
TTITLE7=Sea Cruise
TTITLE8=Dream/Song
TTITLE9=Flyin' Away
EXTD=YEAR: 1975
EXTT0=
EXTT1=
EXTT2=
EXTT3=
EXTT4=
EXTT5=
EXTT6=
EXTT7=
EXTT8=
EXTT9=
PLAYORDER=
